<?xml version="1.0" standalone="no"?>
<!DOCTYPE svg PUBLIC "-//W3C//DTD SVG 20010904//EN"
 "http://www.w3.org/TR/2001/REC-SVG-20010904/DTD/svg10.dtd">
<svg version="1.0" xmlns="http://www.w3.org/2000/svg"
 width="50.000000pt" height="50.000000pt" viewBox="0 0 50.000000 50.000000"
 preserveAspectRatio="xMidYMid meet">

<g transform="translate(0.000000,50.000000) scale(0.100000,-0.100000)"
fill="#1f5bff" stroke="none">
<path d="M120 250 l0 -190 95 0 c112 0 156 15 185 62 38 63 19 167 -38 204
-34 22 -106 23 -130 1 -10 -9 -22 -17 -25 -17 -4 0 -7 29 -7 65 l0 65 -40 0
-40 0 0 -190z m202 -3 c14 -21 8 -80 -9 -99 -21 -24 -68 -23 -93 2 -35 35 -21
103 23 119 24 9 67 -3 79 -22z"/>
</g>
</svg>
